# xmcd CD database file
#
# Track frame offsets:
#	180
#	11774
#	31268
#	45800
#	58752
#	68820
#	81735
#	96749
#	108561
#	126464
#	137704
#	154120
#	169675
#	183813
#	194620
#	208042
#	221321
#	234217
#	250259
#	267006
#	289550
#	303069
#	313067
#
# Disc length: 4380 seconds
#
# Revision: 0
# Processed by: cddbd v1.5.1PL0 Copyright (c) Steve Scherf et al.
# Submitted via: CDex 1.51
#
DISCID=48111a17
DTITLE=Down Town Jazz band - Down Town Hightlights CD2
DYEAR=1996
DGENRE=Jazz
TTITLE0=Buddy's habbits
TTITLE1=Kenia blues
TTITLE2=The pearls
TTITLE3=Wouldn't it be lovely
TTITLE4=Jazz me blues
TTITLE5=Working man blues
TTITLE6=New Orleans function
TTITLE7=Little bird
TTITLE8=Londesome road
TTITLE9=Psychotechnical change
TTITLE10=High society
TTITLE11=Basin street blues
TTITLE12=Jazz parade
TTITLE13=All night blues
TTITLE14=Wolga song
TTITLE15=St. James infirmary
TTITLE16=Baboon rag
TTITLE17=Lamie's blues
TTITLE18=Potato head blues
TTITLE19=Do you know what it means to miss New Orleans
TTITLE20=New Orleans stomp
TTITLE21=John's boogie
TTITLE22=King Porter stomp
EXTD=YEAR: 1996
EXTT0=
EXTT1=
EXTT2=
EXTT3=
EXTT4=
EXTT5=
EXTT6=
EXTT7=
EXTT8=
EXTT9=
EXTT10=
EXTT11=
EXTT12=
EXTT13=
EXTT14=
EXTT15=
EXTT16=
EXTT17=
EXTT18=
EXTT19=
EXTT20=
EXTT21=
EXTT22=
PLAYORDER=
